# xmcd CD database file
#
# Track frame offsets:
#	150
#	14450
#	30697
#	45910
#	63322
#	83970
#	98680
#	120050
#	135537
#	151945
#	164170
#	180902
#	199145
#	212222
#	228241
#	240902
#	259777
#
# Disc length: 3708 seconds
#
# Revision: 0
# Processed by: cddbd v1.5.1PL2 Copyright (c) Steve Scherf et al.
# Submitted via: CD2WAV32(JP) R3.22
#
DISCID=cf0e7a11
DTITLE=春歌 - 春歌
DYEAR=2006
DGENRE=Acid Punk
TTITLE0=春の予感-i've been mellow
TTITLE1=春咲小紅
TTITLE2=チェリーブラッサム
TTITLE3=唇よ，熱く君を語れ
TTITLE4=微笑みがえし
TTITLE5=マイ・ピュア・レディ
TTITLE6=卒業
TTITLE7=春なのに
TTITLE8=心の旅
TTITLE9=僕の胸でおやすみ
TTITLE10=初恋
TTITLE11=卒業写真
TTITLE12=すみれ色の涙
TTITLE13=Hi-Hi-Hi
TTITLE14=春風のいたずら
TTITLE15=襟裳岬
TTITLE16=夢で逢えたら
EXTD=
EXTT0=
EXTT1=
EXTT2=
EXTT3=
EXTT4=
EXTT5=
EXTT6=
EXTT7=
EXTT8=
EXTT9=
EXTT10=
EXTT11=
EXTT12=
EXTT13=
EXTT14=
EXTT15=
EXTT16=
PLAYORDER=
